<svg width="18" height="18" viewBox="0 0 18 18" fill="none" xmlns="http://www.w3.org/2000/svg">
<path d="M17.3334 9V11.5833C17.3334 13.4502 17.3334 14.3836 16.97 15.0966C16.6505 15.7238 16.1405 16.2338 15.5133 16.5534C14.8003 16.9167 13.8669 16.9167 12 16.9167H6.00002C4.13318 16.9167 3.19976 16.9167 2.48672 16.5534C1.85951 16.2338 1.34958 15.7238 1.03 15.0966C0.666687 14.3836 0.666687 13.4502 0.666687 11.5833V7.25C0.666687 5.38316 0.666687 4.44974 1.03 3.7367C1.34958 3.10949 1.85951 2.59955 2.48672 2.27998C3.19976 1.91667 4.13318 1.91667 6.00002 1.91667H9.41669M14.8334 6.08333V1.08333M12.3334 3.58333H17.3334M12.3334 9.41667C12.3334 11.2576 10.841 12.75 9.00002 12.75C7.15907 12.75 5.66669 11.2576 5.66669 9.41667C5.66669 7.57572 7.15907 6.08333 9.00002 6.08333C10.841 6.08333 12.3334 7.57572 12.3334 9.41667Z" stroke="white" stroke-linecap="round" stroke-linejoin="round"/>
</svg>
