<svg width="37" height="36" viewBox="0 0 37 36" fill="none" xmlns="http://www.w3.org/2000/svg">
<mask id="mask0_1598_709" style="mask-type:alpha" maskUnits="userSpaceOnUse" x="8" y="8" width="21" height="20">
<rect x="8.5" y="8" width="20" height="20" fill="#D9D9D9"/>
</mask>
<g mask="url(#mask0_1598_709)">
<path d="M13.9956 19.5C13.5819 19.5 13.2292 19.3527 12.9375 19.0581C12.6458 18.7635 12.5 18.4094 12.5 17.9956C12.5 17.5819 12.6473 17.2292 12.9419 16.9375C13.2365 16.6458 13.5906 16.5 14.0044 16.5C14.4181 16.5 14.7708 16.6473 15.0625 16.9419C15.3542 17.2365 15.5 17.5906 15.5 18.0044C15.5 18.4181 15.3527 18.7708 15.0581 19.0625C14.7635 19.3542 14.4094 19.5 13.9956 19.5ZM18.4956 19.5C18.0819 19.5 17.7292 19.3527 17.4375 19.0581C17.1458 18.7635 17 18.4094 17 17.9956C17 17.5819 17.1473 17.2292 17.4419 16.9375C17.7365 16.6458 18.0906 16.5 18.5044 16.5C18.9181 16.5 19.2708 16.6473 19.5625 16.9419C19.8542 17.2365 20 17.5906 20 18.0044C20 18.4181 19.8527 18.7708 19.5581 19.0625C19.2635 19.3542 18.9094 19.5 18.4956 19.5ZM22.9956 19.5C22.5819 19.5 22.2292 19.3527 21.9375 19.0581C21.6458 18.7635 21.5 18.4094 21.5 17.9956C21.5 17.5819 21.6473 17.2292 21.9419 16.9375C22.2365 16.6458 22.5906 16.5 23.0044 16.5C23.4181 16.5 23.7708 16.6473 24.0625 16.9419C24.3542 17.2365 24.5 17.5906 24.5 18.0044C24.5 18.4181 24.3527 18.7708 24.0581 19.0625C23.7635 19.3542 23.4094 19.5 22.9956 19.5Z" fill="white"/>
<path d="M13.9956 19.5C13.5819 19.5 13.2292 19.3527 12.9375 19.0581C12.6458 18.7635 12.5 18.4094 12.5 17.9956C12.5 17.5819 12.6473 17.2292 12.9419 16.9375C13.2365 16.6458 13.5906 16.5 14.0044 16.5C14.4181 16.5 14.7708 16.6473 15.0625 16.9419C15.3542 17.2365 15.5 17.5906 15.5 18.0044C15.5 18.4181 15.3527 18.7708 15.0581 19.0625C14.7635 19.3542 14.4094 19.5 13.9956 19.5ZM18.4956 19.5C18.0819 19.5 17.7292 19.3527 17.4375 19.0581C17.1458 18.7635 17 18.4094 17 17.9956C17 17.5819 17.1473 17.2292 17.4419 16.9375C17.7365 16.6458 18.0906 16.5 18.5044 16.5C18.9181 16.5 19.2708 16.6473 19.5625 16.9419C19.8542 17.2365 20 17.5906 20 18.0044C20 18.4181 19.8527 18.7708 19.5581 19.0625C19.2635 19.3542 18.9094 19.5 18.4956 19.5ZM22.9956 19.5C22.5819 19.5 22.2292 19.3527 21.9375 19.0581C21.6458 18.7635 21.5 18.4094 21.5 17.9956C21.5 17.5819 21.6473 17.2292 21.9419 16.9375C22.2365 16.6458 22.5906 16.5 23.0044 16.5C23.4181 16.5 23.7708 16.6473 24.0625 16.9419C24.3542 17.2365 24.5 17.5906 24.5 18.0044C24.5 18.4181 24.3527 18.7708 24.0581 19.0625C23.7635 19.3542 23.4094 19.5 22.9956 19.5Z" fill="black" fill-opacity="0.6"/>
</g>
</svg>
